<svg width="22" height="23" viewBox="0 0 22 23" fill="none" xmlns="http://www.w3.org/2000/svg">
<path d="M11.0072 0.0138125C8.86949 0.0138125 6.93491 0.1475 5.51254 0.368328C4.80144 0.478719 4.22094 0.607859 3.78407 0.768172C3.56563 0.848328 3.38244 0.932938 3.22307 1.05383C3.07129 1.169 2.91135 1.35195 2.89635 1.60461H2.86119C2.86119 2.07711 2.87816 2.54314 2.91107 3.00209H1.69663C1.69101 2.62934 1.69677 2.25575 1.71426 1.88295L0.457444 1.58858C0.0569436 6.58883 2.0046 11.4556 5.58885 14.9215L6.32268 13.5343C6.12734 13.3725 5.93729 13.2044 5.75282 13.0303C6.02994 12.7408 6.3324 12.4765 6.65657 12.2408C7.28788 12.8583 7.9776 13.3454 8.7103 13.6778C9.7469 14.5095 9.08779 15.0544 7.60874 15.377C10.3679 15.8739 9.43443 18.2958 6.94663 19.7042C6.84632 19.7168 6.74713 19.7287 6.65226 19.7422C6.08755 19.8228 5.62682 19.9161 5.27385 20.0352C5.09736 20.0947 4.94769 20.1571 4.80951 20.2535C4.67123 20.3498 4.49891 20.5209 4.49891 20.7881C4.49891 21.0554 4.67127 21.225 4.80951 21.3213C4.94769 21.4176 5.09732 21.4801 5.27385 21.5396C5.62682 21.6587 6.0876 21.752 6.65226 21.8326C7.78166 21.9936 9.31401 22.0918 11.0072 22.0918C12.7005 22.0918 14.2328 21.9936 15.3622 21.8326C15.9269 21.752 16.3877 21.6587 16.7406 21.5396C16.9171 21.4801 17.0668 21.4176 17.2049 21.3214C17.3431 21.225 17.5155 21.0554 17.5155 20.7882C17.5155 20.5209 17.3431 20.3498 17.2049 20.2535C17.0668 20.1571 16.9171 20.0947 16.7406 20.0352C16.3876 19.9161 15.9268 19.8228 15.3621 19.7422C15.2677 19.7288 15.169 19.7167 15.0691 19.7041C12.5812 18.2958 11.6477 15.874 14.407 15.377C12.9273 15.0542 12.2681 14.5088 13.307 13.6764C14.0448 13.3412 14.7388 12.8488 15.3738 12.2247C15.6854 12.4484 15.9756 12.6952 16.2396 12.9615C16.0464 13.1582 15.8476 13.3492 15.6433 13.5342L16.4021 14.9214C20.1108 11.5485 21.8488 6.50595 21.5598 1.56205L20.2781 1.93564C20.2992 2.29236 20.3081 2.64767 20.3045 3.00205H19.1047C19.138 2.53695 19.1546 2.0708 19.1546 1.60452H19.1194C19.1043 1.35186 18.943 1.16891 18.7913 1.05373C18.6318 0.932797 18.4486 0.848281 18.2302 0.768125C17.7933 0.607719 17.2128 0.478578 16.5017 0.368187C15.0794 0.147406 13.1448 0.0136719 11.007 0.0136719L11.0072 0.0138125ZM11.0072 0.889812C13.1083 0.889812 15.0116 1.02359 16.3671 1.23402C17.0449 1.33925 17.5887 1.4652 17.9286 1.58998C17.9774 1.60789 18.0118 1.62514 18.0517 1.64272C18.0118 1.6603 17.9776 1.6775 17.9286 1.69545C17.5887 1.82023 17.0449 1.94764 16.3671 2.05288C15.0116 2.26334 13.1083 2.39713 11.0072 2.39713C8.90629 2.39713 7.00293 2.2633 5.64735 2.05283C4.96954 1.94759 4.42579 1.82019 4.08585 1.69541C4.03663 1.67731 4.00288 1.66034 3.9628 1.64267C4.00279 1.62505 4.03672 1.60798 4.08585 1.58994C4.42579 1.46516 4.96958 1.33916 5.6474 1.23397C7.00293 1.0235 8.90624 0.889766 11.0072 0.889766V0.889812ZM1.76113 4.25891H3.04288C3.42055 6.97194 4.36616 9.36031 5.67669 11.1144C5.34979 11.3834 5.04824 11.6754 4.77726 11.9904C2.96563 9.81275 2.00966 7.08505 1.76113 4.25891ZM18.9731 4.25891H20.2387C19.9769 7.0542 18.9375 9.70358 17.1888 11.8908C16.9311 11.6043 16.6515 11.3384 16.3525 11.0953C17.6561 9.34311 18.5965 6.96209 18.9731 4.25895V4.25891Z" fill="#D1D1D1"/>
</svg>
