<svg width="14" height="15" viewBox="0 0 14 15" fill="none" xmlns="http://www.w3.org/2000/svg">
<path opacity="0.4" d="M1.45447 5.9363H13.1639" stroke="#A7A9B7" stroke-linecap="round" stroke-linejoin="round"/>
<path opacity="0.4" fill-rule="evenodd" clip-rule="evenodd" d="M3.88794 8.54004C3.88794 8.2639 4.1118 8.04004 4.38794 8.04004H4.39403C4.67017 8.04004 4.89403 8.2639 4.89403 8.54004C4.89403 8.81618 4.67017 9.04004 4.39403 9.04004H4.38794C4.1118 9.04004 3.88794 8.81618 3.88794 8.54004ZM7.3092 8.04004C7.03306 8.04004 6.8092 8.2639 6.8092 8.54004C6.8092 8.81618 7.03306 9.04004 7.3092 9.04004H7.31529C7.59143 9.04004 7.81529 8.81618 7.81529 8.54004C7.81529 8.2639 7.59143 8.04004 7.31529 8.04004H7.3092ZM10.2243 8.04004C9.94819 8.04004 9.72433 8.2639 9.72433 8.54004C9.72433 8.81618 9.94819 9.04004 10.2243 9.04004H10.2304C10.5066 9.04004 10.7304 8.81618 10.7304 8.54004C10.7304 8.2639 10.5066 8.04004 10.2304 8.04004H10.2243ZM10.2243 10.6309C9.94819 10.6309 9.72433 10.8547 9.72433 11.1309C9.72433 11.407 9.94819 11.6309 10.2243 11.6309H10.2304C10.5066 11.6309 10.7304 11.407 10.7304 11.1309C10.7304 10.8547 10.5066 10.6309 10.2304 10.6309H10.2243ZM6.8092 11.1309C6.8092 10.8547 7.03306 10.6309 7.3092 10.6309H7.31529C7.59143 10.6309 7.81529 10.8547 7.81529 11.1309C7.81529 11.407 7.59143 11.6309 7.31529 11.6309H7.3092C7.03306 11.6309 6.8092 11.407 6.8092 11.1309ZM4.38794 10.6309C4.1118 10.6309 3.88794 10.8547 3.88794 11.1309C3.88794 11.407 4.1118 11.6309 4.38794 11.6309H4.39403C4.67017 11.6309 4.89403 11.407 4.89403 11.1309C4.89403 10.8547 4.67017 10.6309 4.39403 10.6309H4.38794Z" fill="#0601B4"/>
<path d="M9.9625 1V3.19385" stroke="#A7A9B7" stroke-linecap="round" stroke-linejoin="round"/>
<path d="M4.65574 1V3.19385" stroke="#A7A9B7" stroke-linecap="round" stroke-linejoin="round"/>
<path fill-rule="evenodd" clip-rule="evenodd" d="M10.0904 2.05273H4.52783C2.59858 2.05273 1.39355 3.14336 1.39355 5.14808V11.1812C1.39355 13.2174 2.59858 14.3333 4.52783 14.3333H10.0843C12.0197 14.3333 13.2186 13.2363 13.2186 11.2316V5.14808C13.2247 3.14336 12.0258 2.05273 10.0904 2.05273Z" stroke="#A7A9B7" stroke-linecap="round" stroke-linejoin="round"/>
</svg>
