<svg width="25" height="25" viewBox="0 0 25 25" fill="none" xmlns="http://www.w3.org/2000/svg">
<path d="M16.4062 15.625C16.199 15.625 16.0003 15.7073 15.8538 15.8538C15.7073 16.0003 15.625 16.199 15.625 16.4062C15.625 16.6135 15.7073 16.8122 15.8538 16.9587C16.0003 17.1052 16.199 17.1875 16.4062 17.1875H19.5312C19.7385 17.1875 19.9372 17.1052 20.0837 16.9587C20.2302 16.8122 20.3125 16.6135 20.3125 16.4062C20.3125 16.199 20.2302 16.0003 20.0837 15.8538C19.9372 15.7073 19.7385 15.625 19.5312 15.625H16.4062ZM1.5625 8.59375C1.5625 7.55775 1.97405 6.56418 2.70661 5.83161C3.43918 5.09905 4.43275 4.6875 5.46875 4.6875H19.5312C20.5673 4.6875 21.5608 5.09905 22.2934 5.83161C23.0259 6.56418 23.4375 7.55775 23.4375 8.59375V16.4062C23.4375 17.4423 23.0259 18.4358 22.2934 19.1684C21.5608 19.9009 20.5673 20.3125 19.5312 20.3125H5.46875C4.43275 20.3125 3.43918 19.9009 2.70661 19.1684C1.97405 18.4358 1.5625 17.4423 1.5625 16.4062V8.59375ZM21.875 9.375V8.59375C21.875 7.97215 21.6281 7.37601 21.1885 6.93647C20.749 6.49693 20.1529 6.25 19.5312 6.25H5.46875C4.84715 6.25 4.25101 6.49693 3.81147 6.93647C3.37193 7.37601 3.125 7.97215 3.125 8.59375V9.375H21.875ZM3.125 10.9375V16.4062C3.125 17.0279 3.37193 17.624 3.81147 18.0635C4.25101 18.5031 4.84715 18.75 5.46875 18.75H19.5312C20.1529 18.75 20.749 18.5031 21.1885 18.0635C21.6281 17.624 21.875 17.0279 21.875 16.4062V10.9375H3.125Z" fill="#FFD57F"/>
</svg>
