<svg width="25" height="24" viewBox="0 0 25 24" fill="none" xmlns="http://www.w3.org/2000/svg">
<g clip-path="url(#clip0_326_2170)">
<path d="M0.766785 9.375H24.4169V14.625H0.766785V9.375Z" fill="#E6E7E8"/>
<path d="M20.7216 3.75H4.46212C2.01322 3.75 0.766785 5.59688 0.766785 7.875V9.375H24.4169V7.875C24.4169 5.59688 23.1705 3.75 20.7216 3.75Z" fill="#EC1C24"/>
<path d="M0.766785 16.125C0.766785 18.4031 2.01322 20.25 4.46212 20.25H20.7216C23.1705 20.25 24.4169 18.4031 24.4169 16.125V14.625H0.766785V16.125Z" fill="#25333A"/>
<path d="M6.58103 9.87793L7.23437 11.2216L8.69661 11.4387L7.63901 12.4872L7.88881 13.9609L6.58103 13.2634L5.27288 13.9609L5.52343 12.4872L4.46582 11.4387L5.92843 11.2216L6.58103 9.87793ZM18.4848 9.87793L19.1382 11.2216L20.6008 11.4387L19.5428 12.4872L19.7941 13.9609L18.4848 13.2634L17.1778 13.9609L17.4291 12.4872L16.3685 11.4387L17.8318 11.2216L18.4848 9.87793Z" fill="#137A08"/>
</g>
<defs>
<clipPath id="clip0_326_2170">
<rect width="23.6501" height="24" fill="white" transform="translate(0.766785)"/>
</clipPath>
</defs>
</svg>
