<svg width="25" height="25" viewBox="0 0 25 25" fill="none" xmlns="http://www.w3.org/2000/svg">
<g clip-path="url(#clip0_15_928)">
<path d="M12.5 25C19.4036 25 25 19.4036 25 12.5C25 5.59644 19.4036 0 12.5 0C5.59647 0 3.05176e-05 5.59644 3.05176e-05 12.5C3.05176e-05 19.4036 5.59647 25 12.5 25Z" fill="#3C5A9A"/>
<path d="M16.5644 3.83691H13.7953C12.1521 3.83691 10.3243 4.52804 10.3243 6.91C10.3324 7.73997 10.3243 8.53483 10.3243 9.4294H8.42331V12.4545H10.3832V21.1632H13.9845V12.397H16.3615L16.5765 9.42091H13.9224C13.9224 9.42091 13.9284 8.09702 13.9224 7.71255C13.9224 6.77125 14.9019 6.82516 14.9608 6.82516C15.4269 6.82516 16.3331 6.82651 16.5658 6.82516V3.83691H16.5644V3.83691Z" fill="white"/>
</g>
<defs>
<clipPath id="clip0_15_928">
<rect width="25" height="25" fill="white"/>
</clipPath>
</defs>
</svg>
