<svg width="24" height="30" viewBox="0 0 24 30" fill="none" xmlns="http://www.w3.org/2000/svg">
<g clip-path="url(#clip0_118_551)">
<path d="M5.50011 6.25H18.5001C18.6441 6.31314 18.7747 6.41664 18.8817 6.55258C18.9888 6.68852 19.0696 6.85329 19.1178 7.03428C19.1661 7.21526 19.1806 7.40765 19.1602 7.59671C19.1398 7.78577 19.085 7.96648 19.0001 8.125L14.0001 15V23.75L10.0001 20V15L5.00011 8.125C4.9152 7.96648 4.86044 7.78577 4.84004 7.59671C4.81963 7.40765 4.83411 7.21526 4.88237 7.03428C4.93063 6.85329 5.01139 6.68852 5.11847 6.55258C5.22554 6.41664 5.35609 6.31314 5.50011 6.25Z" stroke="#A7A9B7" stroke-width="2" stroke-linecap="round" stroke-linejoin="round"/>
</g>
<defs>
<clipPath id="clip0_118_551">
<rect width="24" height="30" fill="white"/>
</clipPath>
</defs>
</svg>
