<?xml version="1.0" encoding="iso-8859-1"?>
<!-- Generator: Adobe Illustrator 19.0.0, SVG Export Plug-In . SVG Version: 6.00 Build 0)  -->
<svg version="1.1" id="Capa_1" xmlns="http://www.w3.org/2000/svg" xmlns:xlink="http://www.w3.org/1999/xlink" x="0px" y="0px"
	 viewBox="0 0 470 470" style="enable-background:new 0 0 470 470;" xml:space="preserve">
<g>
	<path d="M136.808,298.296l-63.483,63.482c-2.929,2.929-2.929,7.678,0,10.606c1.465,1.465,3.384,2.197,5.304,2.197
		c1.919,0,3.839-0.732,5.304-2.197l63.483-63.482c2.929-2.929,2.929-7.678,0-10.606S139.738,295.366,136.808,298.296z"/>
	<path d="M362.3,298.296l-63.482,63.482c-2.929,2.929-2.929,7.678,0,10.606c1.465,1.464,3.385,2.197,5.304,2.197
		s3.839-0.732,5.304-2.197l63.482-63.482c2.929-2.929,2.929-7.678,0-10.606C369.978,295.367,365.229,295.367,362.3,298.296z"/>
	<path d="M469.36,322.416c-0.01-0.045-0.015-0.09-0.026-0.135l-61.053-245.66c-4.699-18.906-21.602-32.11-41.104-32.11
		c-4.143,0-7.5,3.358-7.5,7.5s3.357,7.5,7.5,7.5c12.598,0,23.514,8.524,26.548,20.729l55.926,225.032
		c-0.734-0.072-1.477-0.111-2.23-0.111h-13.537c-4.806-8.249-11.875-15.778-20.98-22.192
		c-17.504-12.328-40.644-19.118-65.157-19.118c-24.515,0-47.654,6.79-65.158,19.118c-13.962,9.834-23.131,22.291-26.698,35.946
		c-6.365-3.133-13.488-4.8-20.891-4.8s-14.525,1.667-20.891,4.8c-3.567-13.655-12.737-26.111-26.698-35.946
		c-17.504-12.328-40.644-19.118-65.157-19.118c-24.515,0-47.654,6.79-65.158,19.118c-9.105,6.414-16.174,13.943-20.98,22.192H22.579
		c-0.752,0-1.496,0.039-2.23,0.111L76.275,80.239c3.034-12.205,13.95-20.729,26.548-20.729c4.143,0,7.5-3.358,7.5-7.5
		s-3.357-7.5-7.5-7.5c-19.503,0-36.405,13.204-41.104,32.11L0.666,322.281c-0.011,0.045-0.016,0.09-0.026,0.135
		C0.225,324.124,0,325.906,0,327.739v5.281c0,12.45,10.129,22.58,22.579,22.58h9.167c6.488,24.812,22.935,45.635,44.795,57.933
		c0.377,0.259,0.772,0.477,1.18,0.66c13.249,7.203,28.422,11.298,44.533,11.298c50.396,0,91.604-40.064,93.465-90.014
		c5.387-4.12,12.125-6.362,19.281-6.362s13.894,2.241,19.281,6.362c1.248,33.504,20.199,62.556,47.755,78.057
		c0.374,0.257,0.767,0.474,1.173,0.656c13.25,7.205,28.425,11.301,44.539,11.301c43.41,0,80.005-29.726,90.507-69.89h9.167
		c12.45,0,22.579-10.129,22.579-22.58v-5.281C470,325.906,469.775,324.124,469.36,322.416z M22.579,340.599
		c-4.179,0-7.579-3.4-7.579-7.58v-5.281c0-4.179,3.4-7.579,7.579-7.579h7.506c-0.905,3.85-1.37,7.79-1.37,11.791
		c0,2.916,0.141,5.8,0.404,8.648H22.579z M122.254,410.49c-10.086,0-19.723-1.932-28.59-5.411l61.046-61.045
		c2.929-2.929,2.929-7.678,0-10.606c-2.929-2.929-7.677-2.929-10.607,0L79.65,397.878c-21.603-14.009-35.936-38.318-35.936-65.927
		c0-29.28,35.232-53.101,78.539-53.101c23.283,0,44.221,6.892,58.615,17.809l-15.554,15.554c-2.929,2.929-2.929,7.678,0,10.606
		c1.465,1.464,3.385,2.197,5.304,2.197s3.839-0.732,5.304-2.197l15.714-15.714c5.835,7.418,9.155,15.873,9.155,24.845
		C200.792,375.257,165.56,410.49,122.254,410.49z M347.747,410.49c-10.086,0-19.723-1.932-28.59-5.411l61.045-61.045
		c2.929-2.929,2.929-7.678,0-10.606c-2.93-2.929-7.678-2.929-10.607,0l-64.451,64.451c-21.603-14.009-35.936-38.318-35.936-65.927
		c0-29.28,35.232-53.101,78.539-53.101c23.283,0,44.221,6.892,58.615,17.809l-15.554,15.554c-2.929,2.929-2.929,7.678,0,10.606
		c1.465,1.464,3.385,2.197,5.304,2.197s3.839-0.732,5.304-2.197l15.714-15.714c5.835,7.418,9.155,15.873,9.155,24.845
		C426.285,375.257,391.053,410.49,347.747,410.49z M455,333.02c0,4.179-3.4,7.58-7.579,7.58h-6.539
		c0.262-2.849,0.404-5.732,0.404-8.648c0-4.001-0.465-7.941-1.37-11.791h7.506c4.179,0,7.579,3.4,7.579,7.579V333.02z"/>
</g>
<g>
</g>
<g>
</g>
<g>
</g>
<g>
</g>
<g>
</g>
<g>
</g>
<g>
</g>
<g>
</g>
<g>
</g>
<g>
</g>
<g>
</g>
<g>
</g>
<g>
</g>
<g>
</g>
<g>
</g>
</svg>
