<svg width="25" height="25" viewBox="0 0 25 25" fill="none" xmlns="http://www.w3.org/2000/svg">
<path d="M12.4479 18.7497C12.8125 18.7497 13.1208 18.6236 13.3729 18.3715C13.6243 18.1202 13.75 17.8122 13.75 17.4476C13.75 17.083 13.6243 16.775 13.3729 16.5236C13.1208 16.2716 12.8125 16.1455 12.4479 16.1455C12.0833 16.1455 11.775 16.2716 11.5229 16.5236C11.2715 16.775 11.1458 17.083 11.1458 17.4476C11.1458 17.8122 11.2715 18.1202 11.5229 18.3715C11.775 18.6236 12.0833 18.7497 12.4479 18.7497ZM12.6042 8.02051C13.0903 8.02051 13.4809 8.15488 13.7761 8.42363C14.0712 8.69308 14.2188 9.04481 14.2188 9.47884C14.2188 9.77398 14.1191 10.0733 13.9198 10.3768C13.7198 10.6809 13.4375 10.9979 13.0729 11.3278C12.5521 11.7792 12.1701 12.2132 11.9271 12.6299C11.684 13.0466 11.5625 13.4632 11.5625 13.8799C11.5625 14.1229 11.6538 14.3268 11.8365 14.4913C12.0184 14.6566 12.2309 14.7393 12.474 14.7393C12.717 14.7393 12.934 14.6525 13.125 14.4788C13.316 14.3052 13.4375 14.0882 13.4896 13.8278C13.5417 13.5327 13.659 13.2594 13.8417 13.008C14.0236 12.7559 14.3229 12.4302 14.7396 12.0309C15.2778 11.5275 15.6556 11.0674 15.8729 10.6507C16.0896 10.2341 16.1979 9.77398 16.1979 9.27051C16.1979 8.38509 15.8639 7.66009 15.1958 7.09551C14.5271 6.53162 13.6632 6.24967 12.6042 6.24967C11.875 6.24967 11.2285 6.38856 10.6646 6.66634C10.1 6.94412 9.66147 7.36947 9.34897 7.94238C9.22744 8.16808 9.18404 8.38926 9.21876 8.60593C9.25348 8.82329 9.37501 9.00141 9.58334 9.1403C9.80904 9.27919 10.0566 9.32259 10.3261 9.27051C10.5948 9.21842 10.816 9.07086 10.9896 8.8278C11.1806 8.56738 11.4108 8.36773 11.6802 8.22884C11.949 8.08995 12.257 8.02051 12.6042 8.02051ZM12.5 22.9163C11.0764 22.9163 9.73091 22.6427 8.46355 22.0955C7.19619 21.549 6.08959 20.807 5.14376 19.8695C4.19723 18.932 3.4507 17.8295 2.90418 16.5622C2.35695 15.2948 2.08334 13.9406 2.08334 12.4997C2.08334 11.0587 2.35695 9.70454 2.90418 8.43718C3.4507 7.16981 4.19723 6.06738 5.14376 5.12988C6.08959 4.19238 7.19619 3.45002 8.46355 2.9028C9.73091 2.35627 11.0764 2.08301 12.5 2.08301C13.9583 2.08301 15.3212 2.35627 16.5886 2.9028C17.8559 3.45002 18.9583 4.19238 19.8958 5.12988C20.8333 6.06738 21.5712 7.16981 22.1094 8.43718C22.6476 9.70454 22.9167 11.0587 22.9167 12.4997C22.9167 13.9406 22.6476 15.2948 22.1094 16.5622C21.5712 17.8295 20.8333 18.932 19.8958 19.8695C18.9583 20.807 17.8559 21.549 16.5886 22.0955C15.3212 22.6427 13.9583 22.9163 12.5 22.9163ZM12.5 20.833C14.8264 20.833 16.7969 20.0216 18.4115 18.3986C20.0261 16.775 20.8333 14.8087 20.8333 12.4997C20.8333 10.1906 20.0261 8.22433 18.4115 6.60072C16.7969 4.9778 14.8264 4.16634 12.5 4.16634C10.2257 4.16634 8.26807 4.9778 6.62709 6.60072C4.98682 8.22433 4.16668 10.1906 4.16668 12.4997C4.16668 14.8087 4.98682 16.775 6.62709 18.3986C8.26807 20.0216 10.2257 20.833 12.5 20.833Z" fill="#FFD57F"/>
</svg>
