<svg width="25" height="24" viewBox="0 0 25 24" fill="none" xmlns="http://www.w3.org/2000/svg">
<path d="M11.126 0.504154C11.4973 0.180394 11.989 0 12.5 0C13.011 0 13.5027 0.180394 13.874 0.504154L23.562 8.94967C24.162 9.47164 24.5 10.2002 24.5 10.9601V21.2334C24.5 21.9671 24.1839 22.6708 23.6213 23.1897C23.0587 23.7085 22.2956 24 21.5 24H17.5C17.1059 24 16.7156 23.9284 16.3515 23.7892C15.9874 23.6501 15.6566 23.4461 15.378 23.189C15.0994 22.9319 14.8784 22.6267 14.7278 22.2908C14.5771 21.955 14.4997 21.595 14.5 21.2316V16.6205C14.5 16.376 14.3946 16.1414 14.2071 15.9684C14.0196 15.7955 13.7652 15.6983 13.5 15.6983H11.5C11.2348 15.6983 10.9804 15.7955 10.7929 15.9684C10.6054 16.1414 10.5 16.376 10.5 16.6205V21.2316C10.5 21.9653 10.1839 22.669 9.62132 23.1878C9.05871 23.7067 8.29565 23.9982 7.5 23.9982H3.5C2.70435 23.9982 1.94129 23.7067 1.37868 23.1878C0.816071 22.669 0.5 21.9653 0.5 21.2316V10.9582C0.5 10.1983 0.84 9.4698 1.44 8.94783L11.126 0.500465V0.504154ZM12.5 1.84319L2.812 10.2906C2.71365 10.3765 2.63528 10.4801 2.58164 10.5948C2.52801 10.7096 2.50023 10.8332 2.5 10.9582V21.2316C2.5 21.4761 2.60536 21.7107 2.79289 21.8836C2.98043 22.0566 3.23478 22.1538 3.5 22.1538H7.5C7.76522 22.1538 8.01957 22.0566 8.20711 21.8836C8.39464 21.7107 8.5 21.4761 8.5 21.2316V16.6205C8.5 15.8868 8.81607 15.1831 9.37868 14.6643C9.94129 14.1454 10.7044 13.8539 11.5 13.8539H13.5C14.2956 13.8539 15.0587 14.1454 15.6213 14.6643C16.1839 15.1831 16.5 15.8868 16.5 16.6205V21.2316C16.5 21.4761 16.6054 21.7107 16.7929 21.8836C16.9804 22.0566 17.2348 22.1538 17.5 22.1538H21.5C21.7652 22.1538 22.0196 22.0566 22.2071 21.8836C22.3946 21.7107 22.5 21.4761 22.5 21.2316V10.9582C22.5 10.8329 22.4724 10.709 22.4188 10.5938C22.3651 10.4787 22.2866 10.3749 22.188 10.2887L12.5 1.84319Z" fill="#A7A9B7"/>
<path d="M12.5 1.84319L2.812 10.2906C2.71365 10.3765 2.63528 10.4801 2.58164 10.5948C2.52801 10.7096 2.50023 10.8332 2.5 10.9582V21.2316C2.5 21.4761 2.60536 21.7107 2.79289 21.8836C2.98043 22.0566 3.23478 22.1538 3.5 22.1538H7.5C7.76522 22.1538 8.01957 22.0566 8.20711 21.8836C8.39464 21.7107 8.5 21.4761 8.5 21.2316V16.6205C8.5 15.8868 8.81607 15.1831 9.37868 14.6643C9.94129 14.1454 10.7044 13.8539 11.5 13.8539H13.5C14.2956 13.8539 15.0587 14.1454 15.6213 14.6643C16.1839 15.1831 16.5 15.8868 16.5 16.6205V21.2316C16.5 21.4761 16.6054 21.7107 16.7929 21.8836C16.9804 22.0566 17.2348 22.1538 17.5 22.1538H21.5C21.7652 22.1538 22.0196 22.0566 22.2071 21.8836C22.3946 21.7107 22.5 21.4761 22.5 21.2316V10.9582C22.5 10.8329 22.4724 10.709 22.4188 10.5938C22.3651 10.4787 22.2866 10.3749 22.188 10.2887L12.5 1.84319Z" fill="white"/>
</svg>
