<svg width="25" height="24" viewBox="0 0 25 24" fill="none" xmlns="http://www.w3.org/2000/svg">
<path d="M2.66663 12C2.66663 17.523 7.14363 22 12.6666 22C18.1896 22 22.6666 17.523 22.6666 12C22.6666 6.477 18.1896 2 12.6666 2C7.14363 2 2.66663 6.477 2.66663 12Z" stroke="#FFD57F" stroke-width="1.5" stroke-linecap="round" stroke-linejoin="round"/>
<path d="M13.6666 2.0498C13.6666 2.0498 16.6666 5.9998 16.6666 11.9998C16.6666 17.9998 13.6666 21.9498 13.6666 21.9498M11.6666 21.9498C11.6666 21.9498 8.66663 17.9998 8.66663 11.9998C8.66663 5.9998 11.6666 2.0498 11.6666 2.0498M3.29663 15.4998H22.0366M3.29663 8.4998H22.0366" stroke="#FFD57F" stroke-width="1.5" stroke-linecap="round" stroke-linejoin="round"/>
</svg>
