<svg width="28" height="18" viewBox="0 0 28 18" fill="none" xmlns="http://www.w3.org/2000/svg">
<path d="M0.678558 1.49375C0.678558 0.80625 1.27588 0.25 2.01115 0.25H12.7388C13.0923 0.25 13.4312 0.381037 13.6811 0.614286C13.931 0.847534 14.0714 1.16389 14.0714 1.49375C14.0714 1.82361 13.931 2.13997 13.6811 2.37321C13.4312 2.60646 13.0923 2.7375 12.7388 2.7375H2.01115C1.65772 2.7375 1.31877 2.60646 1.06886 2.37321C0.818956 2.13997 0.678558 1.82361 0.678558 1.49375ZM0.678558 9C0.678558 8.3125 1.27588 7.75625 2.01115 7.75625H26.1317C26.4851 7.75625 26.8241 7.88729 27.074 8.12054C27.3239 8.35378 27.4643 8.67014 27.4643 9C27.4643 9.32986 27.3239 9.64622 27.074 9.87946C26.8241 10.1127 26.4851 10.2437 26.1317 10.2437H2.01115C1.65772 10.2437 1.31877 10.1127 1.06886 9.87946C0.818956 9.64622 0.678558 9.32986 0.678558 9ZM2.01115 15.2625C1.65772 15.2625 1.31877 15.3935 1.06886 15.6268C0.818956 15.86 0.678558 16.1764 0.678558 16.5062C0.678558 16.8361 0.818956 17.1525 1.06886 17.3857C1.31877 17.619 1.65772 17.75 2.01115 17.75H18.096C18.4494 17.75 18.7883 17.619 19.0383 17.3857C19.2882 17.1525 19.4286 16.8361 19.4286 16.5062C19.4286 16.1764 19.2882 15.86 19.0383 15.6268C18.7883 15.3935 18.4494 15.2625 18.096 15.2625H2.01115Z" fill="#2D4057"/>
</svg>
