<svg width="24" height="24" viewBox="0 0 24 24" fill="none" xmlns="http://www.w3.org/2000/svg">
<path d="M17.1213 3.5H5.12134C4.32569 3.5 3.56263 3.81607 3.00002 4.37868C2.43741 4.94129 2.12134 5.70435 2.12134 6.5V18.5C2.12134 19.2956 2.43741 20.0587 3.00002 20.6213C3.56263 21.1839 4.32569 21.5 5.12134 21.5H17.1213C17.917 21.5 18.68 21.1839 19.2427 20.6213C19.8053 20.0587 20.1213 19.2956 20.1213 18.5V6.5C20.1213 5.70435 19.8053 4.94129 19.2427 4.37868C18.68 3.81607 17.917 3.5 17.1213 3.5ZM18.1213 18.5C18.1213 18.7652 18.016 19.0196 17.8284 19.2071C17.6409 19.3946 17.3866 19.5 17.1213 19.5H5.12134C4.85612 19.5 4.60177 19.3946 4.41423 19.2071C4.22669 19.0196 4.12134 18.7652 4.12134 18.5V6.5C4.12134 6.23478 4.22669 5.98043 4.41423 5.79289C4.60177 5.60536 4.85612 5.5 5.12134 5.5H17.1213C17.3866 5.5 17.6409 5.60536 17.8284 5.79289C18.016 5.98043 18.1213 6.23478 18.1213 6.5V18.5Z" fill="#FFD57F"/>
<path d="M14 12H12V10C12 9.73478 11.8946 9.48043 11.7071 9.29289C11.5196 9.10536 11.2652 9 11 9C10.7348 9 10.4804 9.10536 10.2929 9.29289C10.1054 9.48043 10 9.73478 10 10V12H8C7.73478 12 7.48043 12.1054 7.29289 12.2929C7.10536 12.4804 7 12.7348 7 13C7 13.2652 7.10536 13.5196 7.29289 13.7071C7.48043 13.8946 7.73478 14 8 14H10V16C10 16.2652 10.1054 16.5196 10.2929 16.7071C10.4804 16.8946 10.7348 17 11 17C11.2652 17 11.5196 16.8946 11.7071 16.7071C11.8946 16.5196 12 16.2652 12 16V14H14C14.2652 14 14.5196 13.8946 14.7071 13.7071C14.8946 13.5196 15 13.2652 15 13C15 12.7348 14.8946 12.4804 14.7071 12.2929C14.5196 12.1054 14.2652 12 14 12Z" fill="#FFD57F"/>
</svg>
