<svg width="18" height="22" viewBox="0 0 18 22" fill="none" xmlns="http://www.w3.org/2000/svg">
<path d="M9.00001 16.4166C9.30696 16.4166 9.56443 16.3126 9.77243 16.1046C9.9797 15.8973 10.0833 15.6402 10.0833 15.3333V10.9999C10.0833 10.693 9.9797 10.4355 9.77243 10.2275C9.56443 10.0202 9.30696 9.9166 9.00001 9.9166C8.69307 9.9166 8.43596 10.0202 8.22868 10.2275C8.02068 10.4355 7.91668 10.693 7.91668 10.9999V15.3333C7.91668 15.6402 8.02068 15.8973 8.22868 16.1046C8.43596 16.3126 8.69307 16.4166 9.00001 16.4166ZM9.00001 7.74994C9.30696 7.74994 9.56443 7.64594 9.77243 7.43793C9.9797 7.23066 10.0833 6.97355 10.0833 6.6666C10.0833 6.35966 9.9797 6.10219 9.77243 5.89419C9.56443 5.68691 9.30696 5.58327 9.00001 5.58327C8.69307 5.58327 8.43596 5.68691 8.22868 5.89419C8.02068 6.10219 7.91668 6.35966 7.91668 6.6666C7.91668 6.97355 8.02068 7.23066 8.22868 7.43793C8.43596 7.64594 8.69307 7.74994 9.00001 7.74994ZM9.00001 21.752H8.72918C8.6389 21.752 8.55765 21.734 8.48543 21.6979C6.12015 20.9576 4.17015 19.4904 2.63543 17.2963C1.1007 15.1029 0.333344 12.6791 0.333344 10.0249V4.90619C0.333344 4.4548 0.464427 4.04855 0.726593 3.68743C0.988038 3.32632 1.3264 3.06452 1.74168 2.90202L8.24168 0.464518C8.49446 0.37424 8.74723 0.329102 9.00001 0.329102C9.25279 0.329102 9.50557 0.37424 9.75834 0.464518L16.2583 2.90202C16.6736 3.06452 17.0123 3.32632 17.2745 3.68743C17.536 4.04855 17.6667 4.4548 17.6667 4.90619V10.0249C17.6667 12.6791 16.8993 15.1029 15.3646 17.2963C13.8299 19.4904 11.8799 20.9576 9.51459 21.6979C9.42432 21.734 9.25279 21.752 9.00001 21.752ZM9.00001 19.5583C10.8778 18.9624 12.4306 17.7708 13.6583 15.9833C14.8861 14.1958 15.5 12.2097 15.5 10.0249V4.90619L9.00001 2.46868L2.50001 4.90619V10.0249C2.50001 12.2097 3.1139 14.1958 4.34168 15.9833C5.56945 17.7708 7.12223 18.9624 9.00001 19.5583Z" fill="#FFD57F"/>
</svg>
