<svg width="15" height="15" viewBox="0 0 15 15" fill="none" xmlns="http://www.w3.org/2000/svg">
<path d="M11.3696 14.4279C11.2013 14.4279 11.0338 14.3762 10.8896 14.2733L7.50001 11.8425L4.11043 14.2733C3.96999 14.3744 3.80122 14.4284 3.62822 14.4278C3.45522 14.4272 3.28683 14.372 3.14709 14.27C3.00723 14.1686 2.90291 14.0256 2.84897 13.8615C2.79504 13.6974 2.79423 13.5204 2.84668 13.3558L4.11084 9.27583L0.751676 6.90874C0.61246 6.806 0.50907 6.66209 0.45613 6.49736C0.403191 6.33264 0.403382 6.15544 0.456676 5.99083C0.51039 5.82662 0.614353 5.68344 0.753871 5.58153C0.893389 5.47962 1.06141 5.42413 1.23418 5.42291L5.39459 5.41666L6.71918 1.43791C6.77384 1.274 6.87868 1.13145 7.01886 1.03043C7.15903 0.929418 7.32744 0.875061 7.50022 0.875061C7.673 0.875061 7.8414 0.929418 7.98158 1.03043C8.12175 1.13145 8.2266 1.274 8.28126 1.43791L9.58334 5.41666L13.765 5.42291C13.938 5.42389 14.1063 5.47934 14.2459 5.58141C14.3856 5.68347 14.4895 5.82694 14.543 5.99145C14.5965 6.15596 14.5967 6.33313 14.5438 6.4978C14.4908 6.66247 14.3873 6.80626 14.2479 6.90874L10.8888 9.27583L12.1529 13.3558C12.2055 13.5204 12.2048 13.6973 12.1509 13.8615C12.097 14.0256 11.9928 14.1686 11.8529 14.27C11.7128 14.3728 11.5434 14.4281 11.3696 14.4279Z" fill="#FFD57F"/>
</svg>
