<?xml version="1.0" encoding="iso-8859-1"?>
<!-- Generator: Adobe Illustrator 18.0.0, SVG Export Plug-In . SVG Version: 6.00 Build 0)  -->
<!DOCTYPE svg PUBLIC "-//W3C//DTD SVG 1.1//EN" "http://www.w3.org/Graphics/SVG/1.1/DTD/svg11.dtd">
<svg version="1.1" id="Capa_1" xmlns="http://www.w3.org/2000/svg" xmlns:xlink="http://www.w3.org/1999/xlink" x="0px" y="0px"
	 viewBox="0 0 438.616 438.616" style="enable-background:new 0 0 438.616 438.616;" xml:space="preserve">
<g>
	<path d="M413.791,175.669C399.133,66.288,363.053,47.273,361.524,46.518c-0.306-0.151-0.627-0.271-0.958-0.356l-80.121-20.845
		L265.503,2.279c-0.929-1.434-2.516-2.28-4.195-2.277V0h-84v0.002c-1.678-0.003-3.265,0.843-4.195,2.277L158.17,25.316
		L78.049,46.161c-0.331,0.086-0.651,0.205-0.958,0.356c-1.529,0.756-37.608,19.771-52.266,129.151
		c-0.14,1.042,0.053,2.101,0.549,3.027l2.267,4.226v13.411c0,2.622,2.025,4.799,4.64,4.987l58.667,4.233
		c0.121,0.009,0.242,0.013,0.362,0.013c2.071,0,3.945-1.283,4.68-3.245l3.651-9.744V423c0,2.409,1.717,4.476,4.085,4.916
		c38.347,7.134,76.964,10.7,115.581,10.7c38.617,0,77.234-3.566,115.582-10.7c2.368-0.44,4.085-2.507,4.085-4.916V192.576
		l3.651,9.744c0.735,1.963,2.609,3.246,4.68,3.246c0.12,0,0.241-0.004,0.362-0.013l58.667-4.233c2.615-0.188,4.64-2.365,4.64-4.987
		v-13.411l2.267-4.226C413.738,177.77,413.93,176.711,413.791,175.669z M403.663,175.398l-0.794,1.48l-59.203,4.317l-1.777-1.522
		l-2.884-14.998c0.457-7.122,5.186-74.615,21.801-106.302C369.809,66.557,392.592,94.632,403.663,175.398z M262.513,16.045
		l9.847,15.182c0.062,4.746-0.589,22.671-13.055,35.468l-28.974-8.88C239.385,50.456,253.635,36.506,262.513,16.045z
		 M219.302,53.626c-6.78-4.847-25.154-19.647-34.88-43.626h69.769C244.482,33.9,226.081,48.761,219.302,53.626z M211.308,67.347
		l8-2.452l8,2.452v65.316h-16V67.347z M166.255,31.228l9.848-15.183c8.878,20.46,23.128,34.411,32.182,41.77l-28.974,8.88
		C166.839,53.892,166.194,35.954,166.255,31.228z M77.806,58.366c16.61,31.672,21.348,99.188,21.806,106.311l-2.884,14.998
		l-1.777,1.522l-59.203-4.317l-0.794-1.48C46.036,94.543,68.856,66.498,77.806,58.366z M37.641,191.681v-4.637l51.974,3.79
		l-1.678,4.477L37.641,191.681z M328.975,418.83c-72.789,13.048-146.544,13.047-219.333,0V167.689c0,0-0.088-4.338-0.202-5.976
		c-1.006-14.446-6.134-75.588-22.547-107.521l69.493-18.08c0.638,9.549,3.878,27.109,18.26,39.949
		c0.929,0.83,2.119,1.271,3.331,1.271c0.49,0,0.983-0.072,1.464-0.22l21.868-6.702v67.251c0,2.762,2.239,5,5,5h26
		c2.761,0,5-2.238,5-5V70.412l21.869,6.702c0.481,0.147,0.975,0.22,1.464,0.22c1.212,0,2.402-0.44,3.331-1.271
		c14.381-12.84,17.621-30.4,18.259-39.949l69.493,18.08c-16.322,31.754-21.483,92.394-22.53,107.275
		c-0.125,1.78-0.219,7.224-0.219,7.224V418.83z M350.678,195.311L349,190.833l51.974-3.79v4.637L350.678,195.311z"/>
	<path d="M219.311,74.661c-1.32,0-2.61,0.53-3.54,1.46c-0.93,0.93-1.46,2.22-1.46,3.54c0,1.31,0.53,2.6,1.46,3.53
		c0.93,0.93,2.22,1.47,3.54,1.47c1.31,0,2.6-0.54,3.53-1.47c0.93-0.931,1.47-2.221,1.47-3.53c0-1.32-0.54-2.61-1.47-3.54
		S220.621,74.661,219.311,74.661z"/>
	<path d="M219.311,95.661c-1.32,0-2.61,0.53-3.54,1.46c-0.93,0.93-1.46,2.22-1.46,3.54c0,1.31,0.53,2.6,1.46,3.53
		c0.93,0.93,2.22,1.47,3.54,1.47c1.31,0,2.6-0.54,3.53-1.47c0.93-0.931,1.47-2.221,1.47-3.53c0-1.32-0.54-2.61-1.47-3.54
		S220.621,95.661,219.311,95.661z"/>
	<path d="M219.311,116.661c-1.32,0-2.61,0.53-3.54,1.46c-0.93,0.93-1.46,2.22-1.46,3.54c0,1.31,0.53,2.6,1.46,3.53
		c0.93,0.93,2.22,1.47,3.54,1.47c1.31,0,2.6-0.54,3.53-1.47c0.93-0.931,1.47-2.221,1.47-3.53c0-1.32-0.54-2.61-1.47-3.54
		S220.621,116.661,219.311,116.661z"/>
	<path d="M234.641,22.333c0-2.762-2.239-5-5-5h-20.667c-2.761,0-5,2.238-5,5s2.239,5,5,5h20.667
		C232.403,27.333,234.641,25.095,234.641,22.333z"/>
	<path d="M317.308,116h-57.333c-2.761,0-5,2.238-5,5v18c0,2.762,2.239,5,5,5h57.333c2.761,0,5-2.238,5-5v-18
		C322.308,118.238,320.069,116,317.308,116z M312.308,134h-47.333v-8h47.333V134z"/>
</g>
<g>
</g>
<g>
</g>
<g>
</g>
<g>
</g>
<g>
</g>
<g>
</g>
<g>
</g>
<g>
</g>
<g>
</g>
<g>
</g>
<g>
</g>
<g>
</g>
<g>
</g>
<g>
</g>
<g>
</g>
</svg>
